# xmcd
#
# Track frame offsets:
#	150
#	37900
#	95632
#	132045
#	169657
#	204825
#	244670
#	285255
#
# Disc length: 4286 seconds
# Revision: 0
# Processed by: cddbd v1.5.2PL0 Copyright (c) Steve Scherf et al.
# Submitted via: dBpowerAMP V12.0
#
DISCID=5d10bc08
DTITLE=Various Artist - The Tenth Anniversary Collection Part Two 1996-2000
DYEAR=1998
DGENRE=House
TTITLE0=Luther Vandross - Are You Using Me?
TTITLE1=Masters at Work pres. India - To Be in Love
TTITLE2=Sunkids feat. Chance - Rescue Me
TTITLE3=Kele Le Roc - You Did It Good
TTITLE4=Incognito - Nights Over Egypt
TTITLE5=Tony Touch - I Wonder Why? (He's the Greatest DJ) (MAW Remix)
TTITLE6=Ultra Naté - Divine Love
TTITLE7=Kenny Lattimore - Days Like This
EXTD=
EXTT0=
EXTT1=
EXTT2=
EXTT3=
EXTT4=
EXTT5=
EXTT6=
EXTT7=
PLAYORDER=
